<?xml version="1.0" standalone="no"?><!DOCTYPE svg PUBLIC "-//W3C//DTD SVG 1.1//EN" "http://www.w3.org/Graphics/SVG/1.1/DTD/svg11.dtd"><svg t="1730812469503" class="icon" viewBox="0 0 1024 1024" version="1.1" xmlns="http://www.w3.org/2000/svg" p-id="3635" xmlns:xlink="http://www.w3.org/1999/xlink" width="200" height="200"><path d="M233.301333 128A105.301333 105.301333 0 0 0 128 233.301333v557.397334A105.301333 105.301333 0 0 0 233.301333 896h557.397334A105.301333 105.301333 0 0 0 896 790.698667V233.301333A105.301333 105.301333 0 0 0 790.698667 128H233.301333z m-18.602666 105.301333c0-10.24 8.32-18.602667 18.602666-18.602666h557.397334c10.24 0 18.602667 8.32 18.602666 18.602666v557.397334c0 10.24-8.32 18.602667-18.602666 18.602666H233.301333a18.56 18.56 0 0 1-18.602666-18.602666V233.301333z" fill="#666666" p-id="3636"></path></svg>