<?xml version="1.0" standalone="no"?><!DOCTYPE svg PUBLIC "-//W3C//DTD SVG 1.1//EN" "http://www.w3.org/Graphics/SVG/1.1/DTD/svg11.dtd"><svg t="1731124677355" class="icon" viewBox="0 0 1024 1024" version="1.1" xmlns="http://www.w3.org/2000/svg" p-id="14742" xmlns:xlink="http://www.w3.org/1999/xlink" width="200" height="200"><path d="M926.72 102.4h-153.6V51.2c0-28.16-23.04-51.2-51.2-51.2H312.32c-28.16 0-51.2 23.04-51.2 51.2v51.2H107.52c-28.16 0-51.2 23.04-51.2 51.2v35.84c0 8.704 6.656 15.36 15.36 15.36h890.88c8.704 0 15.36-6.656 15.36-15.36v-35.84c0-28.16-23.04-51.2-51.2-51.2zM107.52 870.4c0 84.992 68.608 153.6 153.6 153.6h512c84.992 0 153.6-68.608 153.6-153.6V256H107.52v614.4z m577.536-343.04c0-16.896 13.824-30.72 30.72-30.72s30.72 13.824 30.72 30.72v225.28c0 16.896-13.824 30.72-30.72 30.72s-30.72-13.824-30.72-30.72v-225.28zM486.4 506.88c0-16.896 13.824-30.72 30.72-30.72s30.72 13.824 30.72 30.72v266.24c0 16.896-13.824 30.72-30.72 30.72s-30.72-13.824-30.72-30.72V506.88z m-198.656 20.48c0-16.896 13.824-30.72 30.72-30.72s30.72 13.824 30.72 30.72v225.28c0 16.896-13.824 30.72-30.72 30.72s-30.72-13.824-30.72-30.72v-225.28z" fill="#DD6572" p-id="14743"></path></svg>